<svg id="visual" viewBox="0 0 1440 600" width="1440" height="600" xmlns="http://www.w3.org/2000/svg" xmlns:xlink="http://www.w3.org/1999/xlink" version="1.1"><rect x="0" y="0" width="1440" height="600" fill="#F5B841"></rect><path d="M0 426L13.3 428C26.7 430 53.3 434 80 422.7C106.7 411.3 133.3 384.7 160 389.5C186.7 394.3 213.3 430.7 240 436.8C266.7 443 293.3 419 320 411.2C346.7 403.3 373.3 411.7 400 416.7C426.7 421.7 453.3 423.3 480 412.8C506.7 402.3 533.3 379.7 560 389.7C586.7 399.7 613.3 442.3 640 454C666.7 465.7 693.3 446.3 720 427.2C746.7 408 773.3 389 800 394C826.7 399 853.3 428 880 444.2C906.7 460.3 933.3 463.7 960 455C986.7 446.3 1013.3 425.7 1040 406.3C1066.7 387 1093.3 369 1120 364.8C1146.7 360.7 1173.3 370.3 1200 381.8C1226.7 393.3 1253.3 406.7 1280 403.8C1306.7 401 1333.3 382 1360 390.3C1386.7 398.7 1413.3 434.3 1426.7 452.2L1440 470L1440 601L1426.7 601C1413.3 601 1386.7 601 1360 601C1333.3 601 1306.7 601 1280 601C1253.3 601 1226.7 601 1200 601C1173.3 601 1146.7 601 1120 601C1093.3 601 1066.7 601 1040 601C1013.3 601 986.7 601 960 601C933.3 601 906.7 601 880 601C853.3 601 826.7 601 800 601C773.3 601 746.7 601 720 601C693.3 601 666.7 601 640 601C613.3 601 586.7 601 560 601C533.3 601 506.7 601 480 601C453.3 601 426.7 601 400 601C373.3 601 346.7 601 320 601C293.3 601 266.7 601 240 601C213.3 601 186.7 601 160 601C133.3 601 106.7 601 80 601C53.3 601 26.7 601 13.3 601L0 601Z" fill="#0F3D2E" stroke-linecap="round" stroke-linejoin="miter"></path></svg>